<svg width="1" height="4" viewBox="0 0 1 4" fill="none" xmlns="http://www.w3.org/2000/svg">
<path d="M0 2.469L1.46749e-08 2.30113L2.95154e-08 2.13138L5.90148e-08 1.79394L7.37623e-08 1.62525L8.86361e-08 1.45512L1.18146e-07 1.11756L1 1.11744L1 1.45545L1 1.62572L1 1.79392L1 2.13091L1 2.30092L1 2.46893L0 2.469Z" fill="#8291B6"/>
<path d="M0 2.469L1.46749e-08 2.30113L2.95154e-08 2.13138L5.90148e-08 1.79394C0.0299004 1.7957 0.0801758 1.79398 0.111537 1.79391L0.328412 1.79353L1 1.79392L1 2.13091L1 2.30092L1 2.46893L0 2.469Z" fill="#9EA4C0"/>
<path d="M0 2.469L1.46749e-08 2.30113L1 2.30092L1 2.46893L0 2.469Z" fill="#D5D8E2"/>
<path d="M1 1.45532L0 1.45499L2.95393e-08 1.11743L1 1.11732L1 1.45532Z" fill="#6E7EA5"/>
<path d="M1 3.65845C0.967336 3.64827 0.836009 3.65277 0.79634 3.65277L0.240646 3.65231L0.0823222 3.65217C0.0657168 3.65217 0.0187637 3.65123 0.00491995 3.65331C0.0032637 3.65357 0.00162109 3.65392 3.57547e-10 3.65436L1.53808e-08 3.48251L8.90949e-08 2.63932L1.04016e-07 2.46864L1 2.46858L1 2.63932L1 3.48169L1 3.65845Z" fill="#D5D8E2"/>
<path d="M1 2.63989L0 2.63989L1.49211e-08 2.46922L1 2.46915L1 2.63989Z" fill="#EEEFF2"/>
<path d="M1 3.65845C0.967336 3.64827 0.836009 3.65277 0.79634 3.65277L0.240646 3.65231L0.0823222 3.65217C0.0657168 3.65217 0.0187637 3.65123 0.00491995 3.65331C0.0032637 3.65357 0.00162109 3.65392 3.57547e-10 3.65436L1.53808e-08 3.48251C0.0530117 3.48317 0.10732 3.48325 0.160352 3.48261C0.439898 3.47929 0.720605 3.4857 1 3.48169L1 3.65845Z" fill="#EEEFF2"/>
<path d="M1 1.11732L0 1.11743L1.4686e-08 0.949444L2.95428e-08 0.779503L4.42253e-08 0.611554L5.90992e-08 0.441417L7.37715e-08 0.273585L8.86283e-08 0.103643L9.76745e-08 0.000166893L1 0.00016698L1 0.103468L1 0.273526L1 0.441475L1 0.611534L1 0.779464L1 0.949425L1 1.11732Z" fill="#F7DCD4"/>
<path d="M1 1.11732L0 1.11743L1.4686e-08 0.949444L2.95428e-08 0.779503L1 0.779464L1 0.949425L1 1.11732Z" fill="#EEEFF2"/>
<path d="M1 1.11732L0 1.11743L1.4686e-08 0.949444L1 0.949425L1 1.11732Z" fill="#D5D8E2"/>
<path d="M1 0.273624L0 0.273683L1.48568e-08 0.103741L2.3903e-08 0.000264645L1 0.000264732L1 0.103566L1 0.273624Z" fill="#9EA4C0"/>
<path d="M1 0.103585L0 0.103761L9.04621e-09 0.000284195L1 0.000284282L1 0.103585Z" fill="#D5D8E2"/>
<path d="M1 0.441651L0 0.441593L1.46775e-08 0.273761L1 0.273702L1 0.441651Z" fill="#F1DDDA"/>
<path d="M1 0.779503L0 0.779542L1.46826e-08 0.611593C0.113395 0.612823 0.229379 0.611651 0.34291 0.611651L1 0.611573L1 0.779503Z" fill="#F1DDDA"/>
<path d="M1 4.00025L0 4.00025L1.57241e-08 3.82038C0.126189 3.82182 0.254559 3.82063 0.380885 3.82063L1 3.82043L1 4.00025Z" fill="#D5D8E2" fill-opacity="0.364706"/>
<path d="M1 3.82038L0.380885 3.82059C0.254559 3.82058 0.126189 3.82178 0 3.82033L1.45498e-08 3.65462C0.00162111 3.65418 0.00326371 3.65383 0.00491996 3.65356C0.0187637 3.65149 0.0657168 3.65243 0.0823223 3.65243L0.240646 3.65256L0.79634 3.65303C0.836009 3.65303 0.967336 3.64853 1 3.6587L1 3.82038Z" fill="#EEEFF2" fill-opacity="0.980392"/>
</svg>
