<svg width="4" height="1" viewBox="0 0 4 1" fill="none" xmlns="http://www.w3.org/2000/svg">
<path d="M1.53125 1.74856e-07L1.69911 1.67519e-07L1.86887 1.60099e-07L2.2063 1.45349e-07L2.37499 1.37975e-07L2.54513 1.30538e-07L2.88269 1.15783e-07L2.8828 1L2.5448 1L2.37452 1L2.20632 1L1.86933 1L1.69932 1L1.53131 1L1.53125 1.74856e-07Z" fill="#8291B6"/>
<path d="M1.53125 1.74856e-07L1.69911 1.67519e-07L1.86887 1.60099e-07L2.2063 1.45349e-07C2.20454 0.0299005 2.20626 0.0801759 2.20634 0.111537L2.20671 0.328412L2.20632 1L1.86933 1L1.69932 1L1.53131 1L1.53125 1.74856e-07Z" fill="#9EA4C0"/>
<path d="M1.53125 1.74856e-07L1.69911 1.67519e-07L1.69932 1L1.53131 1L1.53125 1.74856e-07Z" fill="#D5D8E2"/>
<path d="M2.54492 1L2.54525 1.74842e-07L2.88281 1.60087e-07L2.88293 1L2.54492 1Z" fill="#6E7EA5"/>
<path d="M0.341797 1C0.351971 0.967336 0.347471 0.836009 0.347475 0.79634L0.347938 0.240647L0.348072 0.0823224C0.348076 0.0657169 0.349014 0.0187639 0.346938 0.00492012C0.346674 0.00326387 0.346324 0.00162127 0.345887 1.74677e-07L0.517732 1.67166e-07L1.36092 1.30309e-07L1.5316 1.22848e-07L1.53166 1L1.36093 1L0.518551 1L0.341797 1Z" fill="#D5D8E2"/>
<path d="M1.36035 1L1.36035 1.74856e-07L1.53103 1.67396e-07L1.53109 1L1.36035 1Z" fill="#EEEFF2"/>
<path d="M0.341797 1C0.351971 0.967336 0.347471 0.836009 0.347475 0.79634L0.347938 0.240647L0.348072 0.0823224C0.348076 0.0657169 0.349014 0.0187639 0.346938 0.00492012C0.346674 0.00326387 0.346324 0.00162127 0.345887 1.74677e-07L0.517732 1.67166e-07C0.517074 0.0530119 0.517 0.10732 0.517631 0.160352C0.520951 0.439899 0.514549 0.720606 0.518551 1L0.341797 1Z" fill="#EEEFF2"/>
<path d="M2.88293 1L2.88281 1.74856e-07L3.0508 1.67513e-07L3.22074 1.60085e-07L3.38869 1.52744e-07L3.55883 1.45307e-07L3.72666 1.37971e-07L3.8966 1.30542e-07L4.00008 1.26019e-07L4.00008 1L3.89678 1L3.72672 1L3.55877 1L3.38871 1L3.22078 1L3.05082 1L2.88293 1Z" fill="#F7DCD4"/>
<path d="M2.88293 1L2.88281 1.74856e-07L3.0508 1.67513e-07L3.22074 1.60085e-07L3.22078 1L3.05082 1L2.88293 1Z" fill="#EEEFF2"/>
<path d="M2.88293 1L2.88281 1.74856e-07L3.0508 1.67513e-07L3.05082 1L2.88293 1Z" fill="#D5D8E2"/>
<path d="M3.72662 1L3.72656 1.74856e-07L3.8965 1.67428e-07L3.99998 1.62905e-07L3.99998 1L3.89668 1L3.72662 1Z" fill="#9EA4C0"/>
<path d="M3.89666 1L3.89648 1.74856e-07L3.99996 1.70333e-07L3.99996 1L3.89666 1Z" fill="#D5D8E2"/>
<path d="M3.55859 1L3.55865 1.74854e-07L3.72648 1.67518e-07L3.72654 1L3.55859 1Z" fill="#F1DDDA"/>
<path d="M3.22074 1L3.2207 1.74856e-07L3.38865 1.67515e-07C3.38742 0.113395 3.38859 0.229379 3.38859 0.34291L3.38867 1L3.22074 1Z" fill="#F1DDDA"/>
<path d="M4.37112e-08 1L0 1.74856e-07L0.179863 1.66994e-07C0.178422 0.12619 0.179616 0.254559 0.179611 0.380885L0.179817 1L4.37112e-08 1Z" fill="#D5D8E2" fill-opacity="0.364706"/>
<path d="M0.179865 1L0.179659 0.380885C0.179664 0.254559 0.17847 0.12619 0.179911 1.74825e-07L0.34563 1.67581e-07C0.346068 0.00162126 0.346417 0.00326386 0.346681 0.00492011C0.348757 0.0187639 0.34782 0.0657169 0.347816 0.0823224L0.347681 0.240647L0.347218 0.79634C0.347214 0.836009 0.351714 0.967336 0.34154 1L0.179865 1Z" fill="#EEEFF2" fill-opacity="0.980392"/>
</svg>
