<svg width="4" height="1" viewBox="0 0 4 1" fill="none" xmlns="http://www.w3.org/2000/svg">
<path d="M2.469 1L2.30113 1L2.13138 1L1.79394 1L1.62525 1L1.45512 1L1.11756 1L1.11744 1.15778e-07L1.45545 1.30553e-07L1.62572 1.37996e-07L1.79392 1.45348e-07L2.13091 1.60078e-07L2.30092 1.6751e-07L2.46893 1.74854e-07L2.469 1Z" fill="#8291B6"/>
<path d="M2.469 1L2.30113 1L2.13138 1L1.79394 1C1.7957 0.9701 1.79398 0.919824 1.79391 0.888463L1.79353 0.671588L1.79392 1.45348e-07L2.13091 1.60078e-07L2.30092 1.6751e-07L2.46893 1.74854e-07L2.469 1Z" fill="#9EA4C0"/>
<path d="M2.469 1L2.30113 1L2.30092 1.6751e-07L2.46893 1.74854e-07L2.469 1Z" fill="#D5D8E2"/>
<path d="M1.45532 1.74856e-07L1.45499 1L1.11743 1L1.11732 1.60081e-07L1.45532 1.74856e-07Z" fill="#6E7EA5"/>
<path d="M3.65845 1.74856e-07C3.64827 0.0326646 3.65277 0.163991 3.65277 0.20366L3.65231 0.759354L3.65217 0.917678C3.65217 0.934283 3.65123 0.981236 3.65331 0.99508C3.65357 0.996736 3.65392 0.998379 3.65436 1L3.48251 1L2.63932 1L2.46864 1L2.46858 1.22846e-07L2.63932 1.30309e-07L3.48169 1.6713e-07L3.65845 1.74856e-07Z" fill="#D5D8E2"/>
<path d="M2.63989 1.74856e-07L2.63989 1L2.46922 1L2.46915 1.67393e-07L2.63989 1.74856e-07Z" fill="#EEEFF2"/>
<path d="M3.65845 1.74856e-07C3.64827 0.0326646 3.65277 0.163991 3.65277 0.20366L3.65231 0.759354L3.65217 0.917678C3.65217 0.934283 3.65123 0.981236 3.65331 0.99508C3.65357 0.996736 3.65392 0.998379 3.65436 1L3.48251 1C3.48317 0.946988 3.48325 0.89268 3.48261 0.839649C3.47929 0.560102 3.4857 0.279395 3.48169 1.6713e-07L3.65845 1.74856e-07Z" fill="#EEEFF2"/>
<path d="M1.11732 1.74851e-07L1.11743 1L0.949444 1L0.779503 1L0.611554 1L0.441417 1L0.273585 1L0.103643 1L0.000166893 1L0.000166937 1.26019e-07L0.103468 1.30534e-07L0.273526 1.37968e-07L0.441475 1.45309e-07L0.611534 1.52743e-07L0.779464 1.60083e-07L0.949425 1.67512e-07L1.11732 1.74851e-07Z" fill="#F7DCD4"/>
<path d="M1.11732 1.74851e-07L1.11743 1L0.949444 1L0.779503 1L0.779464 1.60083e-07L0.949425 1.67512e-07L1.11732 1.74851e-07Z" fill="#EEEFF2"/>
<path d="M1.11732 1.74851e-07L1.11743 1L0.949444 1L0.949425 1.67512e-07L1.11732 1.74851e-07Z" fill="#D5D8E2"/>
<path d="M0.273624 1.74854e-07L0.273683 1L0.103741 1L0.000264645 1L0.000264688 1.62905e-07L0.103565 1.6742e-07L0.273624 1.74854e-07Z" fill="#9EA4C0"/>
<path d="M0.103585 1.74849e-07L0.103761 1L0.000284195 1L0.000284239 1.70333e-07L0.103585 1.74849e-07Z" fill="#D5D8E2"/>
<path d="M0.441651 1.74856e-07L0.441593 1L0.273761 1L0.273702 1.67515e-07L0.441651 1.74856e-07Z" fill="#F1DDDA"/>
<path d="M0.779503 1.74855e-07L0.779542 1L0.611593 1C0.612823 0.886606 0.611651 0.770621 0.611651 0.65709L0.611573 1.67514e-07L0.779503 1.74855e-07Z" fill="#F1DDDA"/>
<path d="M4.00025 1.74856e-07L4.00025 1L3.82038 1C3.82182 0.873811 3.82063 0.745442 3.82063 0.619115L3.82043 1.66996e-07L4.00025 1.74856e-07Z" fill="#D5D8E2" fill-opacity="0.364706"/>
<path d="M3.82038 1.74827e-07L3.82059 0.619115C3.82058 0.745442 3.82178 0.873811 3.82033 1L3.65462 1C3.65418 0.998379 3.65383 0.996736 3.65356 0.99508C3.65149 0.981236 3.65243 0.934283 3.65243 0.917678L3.65256 0.759354L3.65303 0.20366C3.65303 0.163991 3.64853 0.0326646 3.6587 1.6776e-07L3.82038 1.74827e-07Z" fill="#EEEFF2" fill-opacity="0.980392"/>
</svg>
