<svg width="1" height="4" viewBox="0 0 1 4" fill="none" xmlns="http://www.w3.org/2000/svg">
<path d="M1 1.53125V1.69911V1.86887V2.2063V2.37499V2.54513V2.88269L0 2.8828V2.5448V2.37452V2.20632V1.86933V1.69932V1.53131L1 1.53125Z" fill="#8291B6"/>
<path d="M1 1.53125V1.69911V1.86887V2.2063C0.9701 2.20454 0.919824 2.20626 0.888463 2.20634L0.671588 2.20671L0 2.20632V1.86933V1.69932V1.53131L1 1.53125Z" fill="#9EA4C0"/>
<path d="M1 1.53125V1.69911L0 1.69932V1.53131L1 1.53125Z" fill="#D5D8E2"/>
<path d="M0 2.54492L1 2.54525V2.88281L0 2.88293V2.54492Z" fill="#6E7EA5"/>
<path d="M0 0.341797C0.0326645 0.351971 0.163991 0.347471 0.20366 0.347475L0.759354 0.347938L0.917678 0.348072C0.934283 0.348076 0.981236 0.349014 0.99508 0.346938C0.996736 0.346674 0.998379 0.346324 1 0.345887V0.517732V1.36092V1.5316L0 1.53166V1.36093V0.518551V0.341797Z" fill="#D5D8E2"/>
<path d="M0 1.36035L1 1.36035V1.53103L0 1.53109V1.36035Z" fill="#EEEFF2"/>
<path d="M0 0.341797C0.0326645 0.351971 0.163991 0.347471 0.20366 0.347475L0.759354 0.347938L0.917678 0.348072C0.934283 0.348076 0.981236 0.349014 0.99508 0.346938C0.996736 0.346674 0.998379 0.346324 1 0.345887V0.517732C0.946988 0.517074 0.89268 0.517 0.839648 0.517631C0.560102 0.520951 0.279395 0.514549 0 0.518551V0.341797Z" fill="#EEEFF2"/>
<path d="M0 2.88293L1 2.88281V3.0508V3.22074V3.38869V3.55883V3.72666V3.8966V4.00008H0V3.89678V3.72672V3.55877V3.38871V3.22078V3.05082V2.88293Z" fill="#F7DCD4"/>
<path d="M0 2.88293L1 2.88281V3.0508V3.22074L0 3.22078V3.05082V2.88293Z" fill="#EEEFF2"/>
<path d="M0 2.88293L1 2.88281V3.0508L0 3.05082V2.88293Z" fill="#D5D8E2"/>
<path d="M0 3.72662L1 3.72656V3.8965V3.99998H0V3.89668V3.72662Z" fill="#9EA4C0"/>
<path d="M0 3.89666L1 3.89648V3.99996H0V3.89666Z" fill="#D5D8E2"/>
<path d="M0 3.55859L1 3.55865V3.72648L0 3.72654V3.55859Z" fill="#F1DDDA"/>
<path d="M0 3.22074L1 3.2207V3.38865C0.886605 3.38742 0.770621 3.38859 0.65709 3.38859L0 3.38867V3.22074Z" fill="#F1DDDA"/>
<path d="M0 0H1V0.179863C0.873811 0.178422 0.745441 0.179616 0.619115 0.179611L0 0.179817V0Z" fill="#D5D8E2" fill-opacity="0.364706"/>
<path d="M0 0.179865L0.619115 0.179659C0.745441 0.179664 0.873811 0.17847 1 0.179911V0.34563C0.998379 0.346068 0.996736 0.346417 0.99508 0.346681C0.981236 0.348757 0.934283 0.34782 0.917678 0.347816L0.759354 0.347681L0.20366 0.347218C0.163991 0.347214 0.0326645 0.351714 0 0.34154V0.179865Z" fill="#EEEFF2" fill-opacity="0.980392"/>
</svg>
