<svg width="20" height="14" viewBox="0 0 20 14" fill="none" xmlns="http://www.w3.org/2000/svg">
<g clip-path="url(#clip0_2030_9645)">
<path d="M16.3964 1.18437C16.3901 1.175 16.3839 1.16563 16.3714 1.1625C15.1807 0.615625 13.9214 0.225 12.6307 0.00312495C12.6182 -4.77303e-08 12.6057 0.0031249 12.5964 0.0062499C12.587 0.0093749 12.5776 0.01875 12.5714 0.03125C12.3995 0.340625 12.2432 0.6625 12.1057 0.9875C10.712 0.775 9.29635 0.775 7.90573 0.9875C7.7651 0.659375 7.60885 0.340625 7.43385 0.03125C7.4276 0.021875 7.41823 0.0124999 7.40885 0.0062499C7.39948 -9.54606e-08 7.38698 0 7.37448 0C6.08385 0.221875 4.82448 0.6125 3.63385 1.15937C3.62448 1.1625 3.6151 1.17187 3.60885 1.18125C1.2276 4.7375 0.574476 8.20937 0.893226 11.6344C0.893226 11.6437 0.896351 11.65 0.899476 11.6594C0.902601 11.6687 0.908851 11.6719 0.915101 11.6781C2.3026 12.7062 3.8526 13.4906 5.5026 13.9969C5.5151 14 5.5276 14 5.53698 13.9969C5.54635 13.9937 5.55885 13.9844 5.5651 13.975C5.91823 13.4937 6.23385 12.9812 6.5026 12.45C6.50573 12.4437 6.50885 12.4344 6.50885 12.425C6.50885 12.4156 6.50885 12.4094 6.50573 12.4C6.5026 12.3906 6.49948 12.3844 6.49323 12.3812C6.48698 12.3781 6.48073 12.3719 6.47135 12.3687C5.9776 12.1781 5.49635 11.95 5.03698 11.6844C5.0276 11.6781 5.02135 11.6719 5.0151 11.6656C5.00885 11.6594 5.00573 11.6469 5.00573 11.6375C5.00573 11.6281 5.00573 11.6187 5.01198 11.6094C5.01823 11.6 5.02135 11.5937 5.03073 11.5875C5.1276 11.5156 5.22448 11.4406 5.3151 11.3656C5.32448 11.3594 5.33385 11.3531 5.34323 11.3531C5.3526 11.3531 5.3651 11.3531 5.37448 11.3562C8.38073 12.7281 11.637 12.7281 14.6089 11.3562C14.6182 11.3531 14.6307 11.35 14.6401 11.35C14.6495 11.35 14.662 11.3562 14.6682 11.3625C14.7589 11.4375 14.8557 11.5156 14.9526 11.5875C14.9589 11.5937 14.9651 11.6 14.9714 11.6094C14.9776 11.6187 14.9776 11.6281 14.9776 11.6375C14.9776 11.6469 14.9745 11.6562 14.9682 11.6656C14.962 11.675 14.9557 11.6812 14.9495 11.6844C14.4901 11.9531 14.012 12.1812 13.5151 12.3656C13.5089 12.3687 13.4995 12.3719 13.4932 12.3781C13.487 12.3844 13.4839 12.3906 13.4807 12.4C13.4776 12.4094 13.4776 12.4156 13.4776 12.425C13.4776 12.4344 13.4807 12.4406 13.4839 12.45C13.7589 12.9812 14.0714 13.4906 14.4214 13.975C14.4276 13.9844 14.4401 13.9937 14.4495 13.9969C14.4589 14 14.4745 14 14.4839 13.9969C16.137 13.4906 17.6901 12.7062 19.0807 11.6781C19.087 11.6719 19.0932 11.6656 19.0964 11.6594C19.0995 11.6531 19.1026 11.6437 19.1026 11.6344C19.487 7.67187 18.462 4.23125 16.387 1.18125L16.3964 1.18437ZM6.95885 9.55C6.0526 9.55 5.30885 8.71875 5.30885 7.7C5.30885 6.68125 6.0401 5.85 6.95885 5.85C7.88698 5.85 8.62448 6.6875 8.60885 7.7C8.60885 8.72187 7.8776 9.55 6.95885 9.55ZM13.0651 9.55C12.1589 9.55 11.4151 8.71875 11.4151 7.7C11.4151 6.68125 12.1464 5.85 13.0651 5.85C13.9932 5.85 14.7307 6.6875 14.7151 7.7C14.7151 8.72187 13.9901 9.55 13.0651 9.55Z" fill="white"/>
</g>
<defs>
<clipPath id="clip0_2030_9645">
<rect width="20" height="13.9992" fill="white"/>
</clipPath>
</defs>
</svg>
