<svg width="18" height="20" viewBox="0 0 18 20" fill="none" xmlns="http://www.w3.org/2000/svg">
<path d="M9.64286 0.666667C9.64286 0.3 9.35357 0 9 0C8.64643 0 8.35714 0.3 8.35714 0.666667V12.3917L4.95402 8.8625C4.70491 8.60417 4.29509 8.60417 4.04598 8.8625C3.79687 9.12083 3.79687 9.54583 4.04598 9.80417L8.54598 14.4708C8.79509 14.7292 9.20491 14.7292 9.45402 14.4708L13.954 9.80417C14.2031 9.54583 14.2031 9.12083 13.954 8.8625C13.7049 8.60417 13.2951 8.60417 13.046 8.8625L9.64286 12.3917V0.666667ZM3.43527 12H2.57143C1.15313 12 0 13.1958 0 14.6667V17.3333C0 18.8042 1.15313 20 2.57143 20H15.4286C16.8469 20 18 18.8042 18 17.3333V14.6667C18 13.1958 16.8469 12 15.4286 12H14.5647L13.279 13.3333H15.4286C16.1397 13.3333 16.7143 13.9292 16.7143 14.6667V17.3333C16.7143 18.0708 16.1397 18.6667 15.4286 18.6667H2.57143C1.86027 18.6667 1.28571 18.0708 1.28571 17.3333V14.6667C1.28571 13.9292 1.86027 13.3333 2.57143 13.3333H4.72098L3.43527 12ZM14.7857 16C14.7857 15.4458 14.3558 15 13.8214 15C13.2871 15 12.8571 15.4458 12.8571 16C12.8571 16.5542 13.2871 17 13.8214 17C14.3558 17 14.7857 16.5542 14.7857 16Z" fill="white"/>
</svg>
