<svg width="16" height="16" viewBox="0 0 16 16" fill="none" xmlns="http://www.w3.org/2000/svg">
<path d="M13.1999 7.9999C13.1999 10.8724 10.8724 13.1999 7.9999 13.1999L7.3999 13.1999L7.3999 14.3999L7.9999 14.3999C11.5349 14.3999 14.3999 11.5349 14.3999 7.9999C14.3999 4.4649 11.5349 1.5999 7.9999 1.5999L7.9999 2.7999C10.8724 2.7999 13.1999 5.1274 13.1999 7.9999ZM7.6249 4.9749L7.1999 4.5499L6.3524 5.3974C6.4424 5.4874 7.1099 6.1549 8.3524 7.3974L1.5999 7.3974L1.5999 8.5974L8.3524 8.5974C7.1099 9.8399 6.4424 10.5074 6.3524 10.5974L7.1999 11.4449L7.6249 11.0199L10.2249 8.4199L10.6499 7.9949L10.2249 7.5699L7.6249 4.9699L7.6249 4.9749Z" fill="white"/>
</svg>
