<svg width="18" height="18" viewBox="0 0 18 18" fill="none" xmlns="http://www.w3.org/2000/svg">
<path d="M11.7 10.35L13.5 16.2H12.0881L10.7044 11.7H3.69846L2.31471 16.2H0.902832L2.70283 10.35H11.7028H11.7ZM15.525 4.05005V6.07505H17.55V7.42505H15.525V9.45005H14.175V7.42505H12.15V6.07505H14.175V4.05005H15.525ZM7.20002 9.00005C5.21158 9.00005 3.60002 7.38849 3.60002 5.40005C3.60002 3.41161 5.21158 1.80005 7.20002 1.80005C9.18846 1.80005 10.8 3.41161 10.8 5.40005C10.8 7.38849 9.18846 9.00005 7.20002 9.00005ZM7.20002 3.15005C5.95689 3.15005 4.95002 4.15692 4.95002 5.40005C4.95002 6.64317 5.95689 7.65005 7.20002 7.65005C8.44314 7.65005 9.45002 6.64317 9.45002 5.40005C9.45002 4.15692 8.44314 3.15005 7.20002 3.15005Z" fill="white"/>
</svg>
