<svg width="20" height="20" viewBox="0 0 20 20" fill="none" xmlns="http://www.w3.org/2000/svg">
<path d="M7.49995 6C7.49995 4.61875 8.6187 3.5 9.99995 3.5C11.3812 3.5 12.5 4.61875 12.5 6C12.5 7.38125 11.3812 8.5 9.99995 8.5C8.6187 8.5 7.49995 7.38125 7.49995 6ZM4.5687 18L6.1062 13H13.8906L15.4281 18H16.9968L14.9968 11.5H4.99683L2.99683 18H4.56558H4.5687ZM9.99995 10C12.2093 10 14 8.20937 14 6C14 3.79063 12.2093 2 9.99995 2C7.79058 2 5.99995 3.79063 5.99995 6C5.99995 8.20937 7.79058 10 9.99995 10Z" fill="white"/>
</svg>
