<svg preserveAspectRatio="none" width="100%" height="100%" overflow="visible" style="display: block;" viewBox="0 0 20 20" fill="none" xmlns="http://www.w3.org/2000/svg">
<g id="timer 1">
<path id="Vector" d="M10 2C9.725 2 9.5 2.225 9.5 2.5V5.5C9.5 5.775 9.725 6 10 6C10.275 6 10.5 5.775 10.5 5.5V3.01875C14.1312 3.275 17 6.30312 17 10C17 13.8656 13.8656 17 10 17C6.13438 17 3 13.8656 3 10C3 8.06562 3.78438 6.31875 5.05 5.05C5.24375 4.85625 5.24375 4.5375 5.05 4.34375C4.85625 4.15 4.5375 4.14687 4.34375 4.34375C2.89688 5.79062 2 7.79063 2 10C2 14.4187 5.58125 18 10 18C14.4187 18 18 14.4187 18 10C18 5.58125 14.4187 2 10 2ZM7.35313 6.64687C7.15938 6.45312 6.84062 6.45312 6.64687 6.64687C6.45312 6.84062 6.45312 7.15938 6.64687 7.35313L9.64688 10.3531C9.84063 10.5469 10.1594 10.5469 10.3531 10.3531C10.5469 10.1594 10.5469 9.84063 10.3531 9.64688L7.35313 6.64687Z" fill="var(--fill-0, white)"/>
</g>
</svg>
