<svg preserveAspectRatio="none" width="100%" height="100%" overflow="visible" style="display: block;" viewBox="0 0 231.41 118.688" fill="none" xmlns="http://www.w3.org/2000/svg">
<g id="Kanturu A">
<path id="Vector" d="M8.192 57.824C10.9653 56.672 13.632 56.096 16.192 56.096C18.3253 56.096 20.5227 56.8854 22.784 58.464C24.0213 59.3174 25.408 60.9814 26.944 63.456C27.968 65.1627 29.2693 68.256 30.848 72.736L38.656 94.8801C40.448 99.8294 42.2613 103.755 44.096 106.656C45.9733 109.6 47.68 111.797 49.216 113.248C50.752 114.741 52.352 115.787 54.016 116.384C55.68 116.981 57.0453 117.28 58.112 117.28C59.2213 117.28 60.2027 117.195 61.056 117.024L61.12 117.664C59.072 118.347 57.0667 118.688 55.104 118.688C53.1413 118.688 51.1787 118.176 49.216 117.152C47.2533 116.171 45.4187 114.784 43.712 112.992C40.0427 109.28 36.928 103.627 34.368 96.0321L31.872 88.736H14.336L9.92 100.128C9.70667 100.64 9.6 101.152 9.6 101.664C9.6 102.176 9.81333 102.731 10.24 103.328C10.7093 103.883 11.4133 104.16 12.352 104.16H12.864V104.8H0V104.16H0.576C1.6 104.16 2.60267 103.861 3.584 103.264C4.56533 102.624 5.376 101.685 6.016 100.448L21.888 62.432C19.584 59.1467 16.7253 57.504 13.312 57.504C11.776 57.504 10.1333 57.824 8.384 58.464L8.192 57.824ZM15.04 86.816H31.232L26.176 71.9041C25.1947 69.0454 24.2987 66.8054 23.488 65.1841L15.04 86.816Z" fill="var(--fill-0, white)"/>
<path id="Vector_2" d="M231.41 17.2H230.73C230.17 17.2 229.677 17.3867 229.25 17.76C228.85 18.1067 228.65 18.5467 228.65 19.08V34.68C228.65 37.96 227.624 40.56 225.57 42.48C223.517 44.4 220.704 45.3601 217.13 45.3601C212.917 45.3601 209.69 44.4267 207.45 42.56C205.21 40.6667 204.09 38.0534 204.09 34.72V19.2C204.09 18.6134 203.877 18.1334 203.45 17.76C203.05 17.3867 202.557 17.2 201.97 17.2H201.33V16.8H212.85V17.2H212.21C211.624 17.2 211.13 17.3867 210.73 17.76C210.33 18.1067 210.117 18.56 210.09 19.12V34.4C210.09 37.2267 210.784 39.4667 212.17 41.12C213.557 42.7734 215.464 43.6 217.89 43.6C220.317 43.6 222.237 42.8267 223.65 41.28C225.064 39.7067 225.784 37.5867 225.81 34.92V19.12C225.81 18.56 225.597 18.1067 225.17 17.76C224.77 17.3867 224.277 17.2 223.69 17.2H223.05V16.8H231.41V17.2Z" fill="url(#paint0_linear_0_4)"/>
<path id="Vector_3" d="M184.366 18.56H182.646C182.593 18.56 182.553 18.56 182.526 18.56V41.88C182.553 42.8667 182.98 43.6 183.806 44.08C184.206 44.2934 184.633 44.4 185.086 44.4H185.606V44.8H173.446V44.4H173.966C174.926 44.4 175.66 43.9867 176.166 43.16C176.38 42.7867 176.5 42.3734 176.526 41.92V19.72C176.5 19.0267 176.233 18.44 175.726 17.96C175.246 17.4534 174.66 17.2 173.966 17.2H173.446V16.8H187.166C189.753 16.8 191.94 17.36 193.726 18.48C194.633 19.04 195.353 19.8267 195.886 20.84C196.42 21.8267 196.686 22.96 196.686 24.24C196.686 25.4934 196.46 26.6534 196.006 27.72C195.58 28.7867 194.846 29.72 193.806 30.52C192.793 31.32 191.566 31.8 190.126 31.96C191.673 32.4667 193.033 33.64 194.206 35.48C197.086 40.0934 199.22 42.84 200.606 43.72C201.3 44.1467 202.166 44.3734 203.206 44.4V44.8H199.286C197.02 44.8 195.126 44.4934 193.606 43.8801C192.086 43.2401 190.846 42.16 189.886 40.64C189.406 39.8667 188.793 38.7067 188.046 37.16C187.3 35.5867 186.806 34.4667 186.566 33.8C185.846 32.2 184.94 31.3067 183.846 31.12V30.72H185.086C186.286 30.72 187.34 30.36 188.246 29.64C189.18 28.92 189.806 27.7467 190.126 26.12C190.233 25.56 190.286 25.12 190.286 24.8C190.286 22.6134 189.846 21.04 188.966 20.08C188.086 19.0934 186.953 18.5867 185.566 18.56C185.3 18.56 184.9 18.56 184.366 18.56Z" fill="url(#paint1_linear_0_4)"/>
<path id="Vector_4" d="M170.746 17.2H170.066C169.506 17.2 169.013 17.3867 168.586 17.76C168.186 18.1067 167.986 18.5467 167.986 19.08V34.68C167.986 37.96 166.96 40.56 164.906 42.48C162.853 44.4 160.04 45.3601 156.466 45.3601C152.253 45.3601 149.026 44.4267 146.786 42.56C144.546 40.6667 143.426 38.0534 143.426 34.72V19.2C143.426 18.6134 143.213 18.1334 142.786 17.76C142.386 17.3867 141.893 17.2 141.306 17.2H140.666V16.8H152.186V17.2H151.546C150.96 17.2 150.466 17.3867 150.066 17.76C149.666 18.1067 149.453 18.56 149.426 19.12V34.4C149.426 37.2267 150.12 39.4667 151.506 41.12C152.893 42.7734 154.8 43.6 157.226 43.6C159.653 43.6 161.573 42.8267 162.986 41.28C164.4 39.7067 165.12 37.5867 165.146 34.92V19.12C165.146 18.56 164.933 18.1067 164.506 17.76C164.106 17.3867 163.613 17.2 163.026 17.2H162.386V16.8H170.746V17.2Z" fill="url(#paint2_linear_0_4)"/>
<path id="Vector_5" d="M128.866 18.44V41.92C128.892 42.6134 129.146 43.2 129.626 43.68C130.132 44.16 130.732 44.4 131.426 44.4H131.906L131.946 44.8H119.786V44.4H120.306C120.972 44.4 121.546 44.16 122.026 43.68C122.532 43.2 122.812 42.6267 122.866 41.96V18.44H117.466C116.239 18.4667 115.266 18.8534 114.546 19.6C113.826 20.3467 113.466 21.32 113.466 22.52V23H113.066V16.04C113.439 16.2 114.106 16.36 115.066 16.52C116.052 16.68 116.959 16.76 117.786 16.76H133.906C135.212 16.7334 136.279 16.6267 137.106 16.44C137.932 16.2534 138.439 16.12 138.626 16.04V23H138.226V22.52C138.226 21.32 137.866 20.3467 137.146 19.6C136.426 18.8534 135.452 18.4667 134.226 18.44H128.866Z" fill="url(#paint3_linear_0_4)"/>
<path id="Vector_6" d="M110.576 17.2C109.91 17.2 109.336 17.44 108.856 17.92C108.376 18.3734 108.123 18.9334 108.096 19.6V40.24C108.096 42.0267 108.216 43.5334 108.456 44.76L108.576 45.3601H108.216L88.0163 26.12V42C88.0163 42.6667 88.2563 43.24 88.7363 43.72C89.2163 44.1734 89.7896 44.4 90.4563 44.4H91.2163V44.8H79.0963V44.4H79.8163C80.5096 44.4 81.0963 44.1734 81.5763 43.72C82.0563 43.24 82.2963 42.6534 82.2963 41.96V21.2C82.2963 19.44 82.1763 17.9734 81.9363 16.8L81.8563 16.2H82.2163L102.416 35.44V19.64C102.39 18.9467 102.136 18.3734 101.656 17.92C101.176 17.44 100.603 17.2 99.9363 17.2H99.2163V16.8H111.336V17.2H110.576Z" fill="url(#paint4_linear_0_4)"/>
<path id="Vector_7" d="M78.7835 44.4H79.1435V44.8H66.3835V44.4H66.7435C67.3302 44.4 67.7568 44.2267 68.0235 43.8801C68.3168 43.5067 68.4635 43.16 68.4635 42.84C68.4635 42.52 68.3968 42.2 68.2635 41.88L66.3035 36.96H56.9435L54.8635 41.88C54.7302 42.2267 54.6635 42.5601 54.6635 42.8801C54.6635 43.1734 54.7968 43.5067 55.0635 43.8801C55.3568 44.2267 55.8102 44.4 56.4235 44.4H56.7435V44.8H48.1835V44.4H48.5435C49.1568 44.4 49.7702 44.2134 50.3835 43.84C50.9968 43.4667 51.5035 42.9067 51.9035 42.16L61.1435 21.24C62.3968 18.6 63.0635 16.8534 63.1435 16H63.5035L75.3835 42.08C75.7835 42.8534 76.2902 43.44 76.9035 43.84C77.5168 44.2134 78.1435 44.4 78.7835 44.4ZM57.6235 35.28H65.6235L61.7435 25.44L57.6235 35.28Z" fill="url(#paint5_linear_0_4)"/>
<path id="Vector_8" d="M4.096 44.16C5.20533 44.16 6.144 43.776 6.912 43.008C7.72267 42.1974 8.14933 41.2374 8.192 40.128V4.60805C8.14933 3.07205 7.44533 1.92005 6.08 1.15205C5.48267 0.810712 4.82133 0.640045 4.096 0.640045H3.264V4.57764e-05H22.72L22.656 0.640045H21.888C20.7787 0.640045 19.8187 1.02405 19.008 1.79205C18.1973 2.56005 17.792 3.49871 17.792 4.60805V40.128C17.792 41.2374 18.1973 42.1974 19.008 43.008C19.8187 43.776 20.7787 44.16 21.888 44.16H22.656L22.72 44.8H3.264V44.16H4.096ZM67.648 55.68C64.5333 57.3014 61.696 58.112 59.136 58.112C56.576 58.112 54.272 57.7494 52.224 57.024C47.1467 55.1894 41.9627 50.9867 36.672 44.416L19.84 23.68L35.008 3.58405C35.3493 3.15738 35.52 2.77338 35.52 2.43204C35.52 2.09071 35.456 1.79205 35.328 1.53605C34.9867 0.896046 34.3893 0.576046 33.536 0.576046H32.896V4.57764e-05H47.552V0.576046H47.296C44.4373 0.576046 42.112 1.60005 40.32 3.64805L27.84 18.496L45.248 40.128C49.1307 45.248 52.7787 48.96 56.192 51.264C59.6053 53.568 63.4027 54.8267 67.584 55.0401L67.648 55.68Z" fill="url(#paint6_linear_0_4)"/>
<path id="Vector_9" d="M158.604 89.647C158.538 89.339 158.505 88.745 158.505 87.865C158.505 86.985 158.67 86.05 159 85.06H159.297C159.275 85.302 159.264 85.544 159.264 85.786C159.264 87.128 159.671 88.25 160.485 89.152C161.299 90.032 162.377 90.472 163.719 90.472C165.105 90.472 166.238 90.054 167.118 89.218C168.02 88.382 168.471 87.337 168.471 86.083C168.471 84.807 168.042 83.773 167.184 82.981L160.848 77.107C159.66 76.007 159.066 74.676 159.066 73.114C159.066 71.552 159.583 70.221 160.617 69.121C161.673 67.999 163.092 67.438 164.874 67.438C165.71 67.438 166.656 67.548 167.712 67.768H168.999V71.827H168.702C168.702 70.793 168.339 69.968 167.613 69.352C166.909 68.736 165.996 68.428 164.874 68.428C163.752 68.428 162.806 68.802 162.036 69.55C161.288 70.298 160.914 71.233 160.914 72.355C160.914 73.477 161.354 74.445 162.234 75.259L168.735 81.265C169.835 82.277 170.385 83.663 170.385 85.423C170.385 87.183 169.824 88.635 168.702 89.779C167.58 90.901 166.084 91.462 164.214 91.462C163.246 91.462 162.212 91.308 161.112 91C160.034 90.714 159.198 90.263 158.604 89.647Z" fill="var(--fill-0, white)"/>
<path id="Vector_10" d="M154.518 68.23C153.968 68.23 153.495 68.428 153.099 68.824C152.703 69.198 152.494 69.66 152.472 70.21V87.238C152.472 88.514 152.549 89.724 152.703 90.868L152.769 91.462H152.472L134.487 72.256V88.69C134.487 89.24 134.685 89.713 135.081 90.109C135.477 90.483 135.95 90.67 136.5 90.67H137.127V91H130.329V90.67H130.956C131.506 90.67 131.979 90.483 132.375 90.109C132.771 89.713 132.969 89.229 132.969 88.657V71.53C132.969 70.188 132.892 68.989 132.738 67.933L132.672 67.405H133.002L150.987 86.611V70.243C150.965 69.671 150.756 69.198 150.36 68.824C149.964 68.428 149.491 68.23 148.941 68.23H148.314V67.9H155.112V68.23H154.518Z" fill="var(--fill-0, white)"/>
<path id="Vector_11" d="M112.207 90.67C112.779 90.67 113.263 90.472 113.659 90.076C114.077 89.658 114.297 89.163 114.319 88.591V70.111C114.319 69.583 114.11 69.143 113.692 68.791C113.274 68.417 112.779 68.23 112.207 68.23H111.811L111.778 67.9H121.447C122.129 67.9 122.866 67.834 123.658 67.702C124.472 67.57 125.044 67.438 125.374 67.306V71.464H125.044V70.87C125.044 70.342 124.857 69.891 124.483 69.517C124.131 69.143 123.702 68.945 123.196 68.923H116.464V79.12H122.041C122.481 79.098 122.855 78.933 123.163 78.625C123.471 78.317 123.625 77.932 123.625 77.47V77.008H123.955V82.222H123.625V81.727C123.625 81.287 123.471 80.913 123.163 80.605C122.877 80.297 122.514 80.132 122.074 80.11H116.464V89.977H121.183C122.811 89.977 124.054 89.614 124.912 88.888C125.77 88.162 126.485 87.084 127.057 85.654H127.387L125.473 91H111.778V90.67H112.207Z" fill="var(--fill-0, white)"/>
<path id="Vector_12" d="M96.8874 90.67H97.3164V91H90.0894V90.67H90.5184C91.0904 90.67 91.5744 90.472 91.9704 90.076C92.3884 89.658 92.6084 89.163 92.6304 88.591V70.276C92.6084 69.704 92.3884 69.22 91.9704 68.824C91.5744 68.428 91.0904 68.23 90.5184 68.23H90.0894V67.9H97.3164V68.23H96.8874C96.3154 68.23 95.8204 68.428 95.4024 68.824C95.0064 69.22 94.7974 69.704 94.7754 70.276V88.591C94.7754 89.163 94.9844 89.658 95.4024 90.076C95.8204 90.472 96.3154 90.67 96.8874 90.67ZM110.153 91H108.734C106.49 91 104.84 90.373 103.784 89.119L95.8314 79.516L103.619 69.748C103.795 69.528 103.883 69.33 103.883 69.154C103.883 68.978 103.85 68.824 103.784 68.692C103.608 68.362 103.289 68.197 102.827 68.197H102.497V67.9H109.46V68.197H109.328C107.876 68.197 106.688 68.714 105.764 69.748L98.0094 78.724L107.018 89.317C107.898 90.197 108.943 90.648 110.153 90.67V91Z" fill="var(--fill-0, white)"/>
<path id="Vector_13" d="M88.2443 90.67H88.5083V91H81.0833V90.67H81.3803C81.8423 90.67 82.1833 90.527 82.4033 90.241C82.6453 89.933 82.7663 89.647 82.7663 89.383C82.7663 89.119 82.7223 88.855 82.6343 88.591L80.5223 82.981H71.6123L69.4013 88.624C69.3133 88.888 69.2693 89.152 69.2693 89.416C69.2693 89.658 69.3793 89.933 69.5993 90.241C69.8413 90.527 70.1933 90.67 70.6553 90.67H70.9523V91H64.3193V90.67H64.6163C65.1663 90.67 65.7053 90.494 66.2333 90.142C66.7613 89.79 67.1903 89.273 67.5203 88.591L74.9783 70.837C75.7923 69.055 76.1993 67.922 76.1993 67.438H76.4963L85.3403 88.591C85.6483 89.273 86.0663 89.79 86.5943 90.142C87.1223 90.494 87.6723 90.67 88.2443 90.67ZM72.0083 81.991H80.1263L76.1663 71.398L72.0083 81.991Z" fill="var(--fill-0, white)"/>
<path id="Vector_14" d="M61.2681 67.9H67.7691V68.23H67.5051C66.9331 68.23 66.3611 68.406 65.7891 68.758C65.2391 69.088 64.8431 69.594 64.6011 70.276L59.1231 87.733C58.6831 89.119 58.4411 90.34 58.3971 91.396H58.1001L51.3681 72.52L46.3521 87.733C45.9341 89.097 45.7031 90.318 45.6591 91.396H45.3621L37.8711 70.243C37.6071 69.583 37.2001 69.088 36.6501 68.758C36.1001 68.406 35.5391 68.23 34.9671 68.23H34.7031V67.9H42.0291V68.23H41.7321C41.2701 68.23 40.9181 68.384 40.6761 68.692C40.4561 68.978 40.3461 69.253 40.3461 69.517C40.3461 69.781 40.3791 70.023 40.4451 70.243L45.4611 86.314L51.5991 67.372L51.8961 67.405L58.3971 85.654L62.8191 70.21C62.8851 69.968 62.9181 69.726 62.9181 69.484C62.9181 69.22 62.8081 68.945 62.5881 68.659C62.3681 68.373 62.0271 68.23 61.5651 68.23H61.2681V67.9Z" fill="var(--fill-0, white)"/>
</g>
<defs>
<linearGradient id="paint0_linear_0_4" x1="201.33" y1="16.8" x2="232.239" y2="17.7274" gradientUnits="userSpaceOnUse">
<stop stop-color="#C0F3FF"/>
<stop offset="1" stop-color="#7EB5F7"/>
</linearGradient>
<linearGradient id="paint1_linear_0_4" x1="173.446" y1="16.8" x2="204.026" y2="17.7259" gradientUnits="userSpaceOnUse">
<stop stop-color="#C0F3FF"/>
<stop offset="1" stop-color="#7EB5F7"/>
</linearGradient>
<linearGradient id="paint2_linear_0_4" x1="140.666" y1="16.8" x2="171.575" y2="17.7274" gradientUnits="userSpaceOnUse">
<stop stop-color="#C0F3FF"/>
<stop offset="1" stop-color="#7EB5F7"/>
</linearGradient>
<linearGradient id="paint3_linear_0_4" x1="113.066" y1="16.04" x2="139.337" y2="16.7051" gradientUnits="userSpaceOnUse">
<stop stop-color="#C0F3FF"/>
<stop offset="1" stop-color="#7EB5F7"/>
</linearGradient>
<linearGradient id="paint4_linear_0_4" x1="79.0963" y1="16.2" x2="112.222" y2="17.2433" gradientUnits="userSpaceOnUse">
<stop stop-color="#C0F3FF"/>
<stop offset="1" stop-color="#7EB5F7"/>
</linearGradient>
<linearGradient id="paint5_linear_0_4" x1="48.1835" y1="16" x2="79.9956" y2="16.9742" gradientUnits="userSpaceOnUse">
<stop stop-color="#C0F3FF"/>
<stop offset="1" stop-color="#7EB5F7"/>
</linearGradient>
<linearGradient id="paint6_linear_0_4" x1="3.264" y1="4.57764e-05" x2="69.4161" y2="2.0878" gradientUnits="userSpaceOnUse">
<stop stop-color="#C0F3FF"/>
<stop offset="1" stop-color="#7EB5F7"/>
</linearGradient>
</defs>
</svg>
