<svg preserveAspectRatio="none" width="100%" height="100%" overflow="visible" style="display: block;" viewBox="0 0 82.7505 24.3761" fill="none" xmlns="http://www.w3.org/2000/svg">
<g id="cRoss">
<path id="Vector" d="M71.1825 17.1281C71.1825 15.9761 71.4305 14.9921 71.9265 14.1761H72.1425C72.1265 14.3041 72.1185 14.4321 72.1185 14.5601C72.1185 15.6641 72.5105 16.6321 73.2945 17.4641C74.0945 18.2801 75.1825 18.6881 76.5585 18.6881C77.6305 18.6881 78.4625 18.4321 79.0545 17.9201C79.6625 17.4081 79.9665 16.7601 79.9665 15.9761C79.9665 15.0321 79.3265 14.2081 78.0465 13.5041L73.8705 10.7441C73.0385 10.2641 72.4385 9.68811 72.0705 9.01611C71.7185 8.32811 71.5425 7.63211 71.5425 6.92811C71.5425 5.42411 72.0145 4.26411 72.9585 3.44811C73.9185 2.63211 75.1425 2.22411 76.6305 2.22411C77.5105 2.22411 78.5985 2.30411 79.8945 2.46411H81.4065L81.0945 5.99211H80.8545C80.8545 5.16011 80.5425 4.49611 79.9185 4.00011C79.3105 3.48811 78.4945 3.23211 77.4705 3.23211C76.2225 3.23211 75.3185 3.61611 74.7585 4.38411C74.4705 4.75211 74.3265 5.16811 74.3265 5.63211C74.3265 6.40011 74.8865 7.11211 76.0065 7.76811L80.5905 10.7441C82.0305 11.5761 82.7505 12.8001 82.7505 14.4161C82.7505 16.1281 82.1665 17.4401 80.9985 18.3521C79.8465 19.2481 78.3105 19.6961 76.3905 19.6961C75.3025 19.6961 74.2945 19.5681 73.3665 19.3121C72.4545 19.0401 71.7825 18.6801 71.3505 18.2321C71.2385 17.9281 71.1825 17.5601 71.1825 17.1281Z" fill="url(#paint0_linear_0_4)"/>
<path id="Vector_2" d="M57.3075 17.1281C57.3075 15.9761 57.5555 14.9921 58.0515 14.1761H58.2675C58.2515 14.3041 58.2435 14.4321 58.2435 14.5601C58.2435 15.6641 58.6355 16.6321 59.4195 17.4641C60.2195 18.2801 61.3075 18.6881 62.6835 18.6881C63.7555 18.6881 64.5875 18.4321 65.1795 17.9201C65.7875 17.4081 66.0915 16.7601 66.0915 15.9761C66.0915 15.0321 65.4515 14.2081 64.1715 13.5041L59.9955 10.7441C59.1635 10.2641 58.5635 9.68811 58.1955 9.01611C57.8435 8.32811 57.6675 7.63211 57.6675 6.92811C57.6675 5.42411 58.1395 4.26411 59.0835 3.44811C60.0435 2.63211 61.2675 2.22411 62.7555 2.22411C63.6355 2.22411 64.7235 2.30411 66.0195 2.46411H67.5315L67.2195 5.99211H66.9795C66.9795 5.16011 66.6675 4.49611 66.0435 4.00011C65.4355 3.48811 64.6195 3.23211 63.5955 3.23211C62.3475 3.23211 61.4435 3.61611 60.8835 4.38411C60.5955 4.75211 60.4515 5.16811 60.4515 5.63211C60.4515 6.40011 61.0115 7.11211 62.1315 7.76811L66.7155 10.7441C68.1555 11.5761 68.8755 12.8001 68.8755 14.4161C68.8755 16.1281 68.2915 17.4401 67.1235 18.3521C65.9715 19.2481 64.4355 19.6961 62.5155 19.6961C61.4275 19.6961 60.4195 19.5681 59.4915 19.3121C58.5795 19.0401 57.9075 18.6801 57.4755 18.2321C57.3635 17.9281 57.3075 17.5601 57.3075 17.1281Z" fill="url(#paint1_linear_0_4)"/>
<path id="Vector_3" d="M45.5738 2.22411C48.5338 2.22411 50.8858 3.00811 52.6298 4.57611C54.3738 6.14411 55.2458 8.27211 55.2458 10.9601C55.2458 13.6481 54.3738 15.7761 52.6298 17.3441C50.8858 18.9121 48.5338 19.6961 45.5738 19.6961C42.6138 19.6961 40.2618 18.9121 38.5178 17.3441C36.7738 15.7761 35.9018 13.6481 35.9018 10.9601C35.9018 9.18411 36.2938 7.64011 37.0778 6.32811C37.8778 5.00011 39.0058 3.98411 40.4618 3.28011C41.9178 2.57611 43.6218 2.22411 45.5738 2.22411ZM41.3738 16.6241C42.4138 18.0001 43.8138 18.6881 45.5738 18.6881C47.3338 18.6881 48.7258 18.0001 49.7498 16.6241C50.7898 15.2321 51.3098 13.3441 51.3098 10.9601C51.3098 9.39211 51.0778 8.02411 50.6138 6.85611C50.1498 5.68811 49.4858 4.79211 48.6218 4.16811C47.7578 3.54411 46.7418 3.23211 45.5738 3.23211C43.8138 3.23211 42.4138 3.92811 41.3738 5.32011C40.3498 6.69611 39.8378 8.57611 39.8378 10.9601C39.8378 13.3441 40.3498 15.2321 41.3738 16.6241Z" fill="url(#paint2_linear_0_4)"/>
<path id="Star 1" d="M47.1146 9.3252L47.139 9.46094L47.2748 9.48535L55.4974 11L47.2748 12.5146L47.139 12.5391L47.1146 12.6748L45.6 20.8975L44.0853 12.6748L44.0609 12.5391L43.9252 12.5146L35.7015 11L43.9252 9.48535L44.0609 9.46094L44.0853 9.3252L45.6 1.10156L47.1146 9.3252Z" fill="var(--fill-0, #98CDFA)" stroke="var(--stroke-0, #1F2736)" stroke-width="0.4"/>
<path id="Vector_4" d="M43.6866 23.4401C42.4386 24.0641 41.1106 24.3761 39.7026 24.3761C38.4546 24.3761 37.3186 24.1841 36.2946 23.8001C34.0866 22.9841 32.2066 21.3921 30.6546 19.0241C30.2546 18.4481 29.5106 17.3441 28.4226 15.7121C27.3346 14.0801 26.6306 13.0401 26.3106 12.5921C25.7506 11.7121 25.3026 11.2321 24.9666 11.1521V10.9121C24.9826 10.9121 24.9986 10.9121 25.0146 10.9121C25.0466 10.9121 25.0786 10.9121 25.1106 10.9121C25.1426 10.9121 25.1746 10.9121 25.2066 10.9121C25.2386 10.9121 25.2786 10.9121 25.3266 10.9121C25.3746 10.9121 25.4146 10.9121 25.4466 10.9121C26.2626 10.9121 27.0146 10.7281 27.7026 10.3601C28.7426 9.78411 29.2626 8.72011 29.2626 7.16811C29.2626 6.03211 28.9426 5.16011 28.3026 4.55211C27.6626 3.92811 26.8946 3.61611 25.9986 3.61611H24.1746V17.6081C24.1746 18.0241 24.3266 18.3841 24.6306 18.6881C24.9346 18.9761 25.2946 19.1201 25.7106 19.1201H26.0226V19.3601H18.7266V19.1201H19.0386C19.4386 19.1201 19.7906 18.9761 20.0946 18.6881C20.3986 18.4001 20.5586 18.0481 20.5746 17.6321V4.31211C20.5586 3.89611 20.3986 3.54411 20.0946 3.25611C19.8066 2.95211 19.4546 2.80011 19.0386 2.80011H18.7266V2.56011H26.9586C29.0226 2.56011 30.6226 3.03211 31.7586 3.97611C32.6546 4.71211 33.1026 5.75211 33.1026 7.09611C33.1026 8.44011 32.6626 9.53611 31.7826 10.3841C30.9186 11.2161 29.9266 11.6321 28.8066 11.6321C28.7106 11.6321 28.6066 11.6241 28.4946 11.6081C29.1506 11.9601 29.6946 12.3521 30.1266 12.7841C30.5746 13.2161 30.9586 13.6241 31.2786 14.0081C31.6146 14.3921 31.8946 14.7361 32.1186 15.0401C32.3586 15.3281 32.6706 15.7201 33.0546 16.2161C33.4386 16.6961 33.8386 17.2001 34.2546 17.7281C34.6706 18.2561 35.1266 18.8001 35.6226 19.3601C36.1346 19.9041 36.6946 20.4241 37.3026 20.9201C37.9266 21.4161 38.5586 21.8241 39.1986 22.1441C40.5586 22.8321 42.0546 23.1841 43.6866 23.2001V23.4401Z" fill="url(#paint3_linear_0_4)"/>
<path id="Vector_5" d="M9.91205 19.6721C6.82405 19.6721 4.40005 18.8961 2.64005 17.3441C0.880046 15.7921 4.57764e-05 13.6641 4.57764e-05 10.9601C4.57764e-05 8.25611 0.872046 6.12811 2.61605 4.57611C4.36005 3.00811 6.75205 2.22411 9.79205 2.22411C12.112 2.22411 14.104 2.65611 15.768 3.52011L15.816 7.64811H15.624C14.808 4.70411 12.944 3.23211 10.032 3.23211C8.14405 3.23211 6.64805 3.92011 5.54405 5.29611C4.45605 6.65611 3.91205 8.52011 3.91205 10.8881C3.91205 13.2561 4.43205 15.1361 5.47205 16.5281C6.52805 17.9201 7.95205 18.6401 9.74405 18.6881C11.6 18.6881 13.016 18.2241 13.992 17.2961C14.984 16.3361 15.672 14.6881 16.056 12.3521H16.248L16.488 16.4801C15.192 18.6241 13 19.6881 9.91205 19.6721Z" fill="url(#paint4_linear_0_4)"/>
</g>
<defs>
<linearGradient id="paint0_linear_0_4" x1="71.1825" y1="2.22411" x2="83.0758" y2="2.44841" gradientUnits="userSpaceOnUse">
<stop stop-color="#C0F3FF"/>
<stop offset="1" stop-color="#7EB5F7"/>
</linearGradient>
<linearGradient id="paint1_linear_0_4" x1="57.3075" y1="2.22411" x2="69.2008" y2="2.44841" gradientUnits="userSpaceOnUse">
<stop stop-color="#C0F3FF"/>
<stop offset="1" stop-color="#7EB5F7"/>
</linearGradient>
<linearGradient id="paint2_linear_0_4" x1="35.9018" y1="2.22411" x2="55.7771" y2="2.85092" gradientUnits="userSpaceOnUse">
<stop stop-color="#C0F3FF"/>
<stop offset="1" stop-color="#7EB5F7"/>
</linearGradient>
<linearGradient id="paint3_linear_0_4" x1="18.7266" y1="2.56011" x2="44.3704" y2="3.39585" gradientUnits="userSpaceOnUse">
<stop stop-color="#C0F3FF"/>
<stop offset="1" stop-color="#7EB5F7"/>
</linearGradient>
<linearGradient id="paint4_linear_0_4" x1="4.57764e-05" y1="2.22411" x2="16.9454" y2="2.68024" gradientUnits="userSpaceOnUse">
<stop stop-color="#C0F3FF"/>
<stop offset="1" stop-color="#7EB5F7"/>
</linearGradient>
</defs>
</svg>
